<?xml version="1.0" encoding="UTF-8" standalone="no"?>
<!-- Created with Inkscape (http://www.inkscape.org/) -->

<svg
   width="3362.0679mm"
   height="932.8302mm"
   viewBox="0 0 3362.0678 932.8302"
   version="1.1"
   id="svg1"
   inkscape:version="1.4.2 (ebf0e94, 2025-05-08)"
   sodipodi:docname="logo_text_white_bg.svg"
   xml:space="preserve"
   xmlns:inkscape="http://www.inkscape.org/namespaces/inkscape"
   xmlns:sodipodi="http://sodipodi.sourceforge.net/DTD/sodipodi-0.dtd"
   xmlns:xlink="http://www.w3.org/1999/xlink"
   xmlns="http://www.w3.org/2000/svg"
   xmlns:svg="http://www.w3.org/2000/svg"><sodipodi:namedview
     id="namedview1"
     pagecolor="#ffffff"
     bordercolor="#666666"
     borderopacity="1.0"
     inkscape:showpageshadow="2"
     inkscape:pageopacity="0.0"
     inkscape:pagecheckerboard="0"
     inkscape:deskcolor="#d1d1d1"
     inkscape:document-units="mm"
     inkscape:zoom="0.04700746"
     inkscape:cx="4839.6573"
     inkscape:cy="-691.37962"
     inkscape:window-width="2560"
     inkscape:window-height="1369"
     inkscape:window-x="-8"
     inkscape:window-y="-8"
     inkscape:window-maximized="1"
     inkscape:current-layer="layer1" /><defs
     id="defs1"><linearGradient
       id="linearGradient78"
       inkscape:collect="always"><stop
         style="stop-color:#ef7916;stop-opacity:1;"
         offset="0"
         id="stop78" /><stop
         style="stop-color:#ef7919;stop-opacity:1;"
         offset="0.14883006"
         id="stop83" /><stop
         style="stop-color:#e6047b;stop-opacity:1;"
         offset="0.31564587"
         id="stop80" /><stop
         style="stop-color:#603c90;stop-opacity:1;"
         offset="0.56564587"
         id="stop81" /><stop
         style="stop-color:#4a559f;stop-opacity:1;"
         offset="0.71762449"
         id="stop82" /><stop
         style="stop-color:#6ec7d9;stop-opacity:1;"
         offset="1"
         id="stop79" /></linearGradient><linearGradient
       inkscape:collect="always"
       xlink:href="#linearGradient78"
       id="linearGradient79"
       x1="26.889506"
       y1="499.60233"
       x2="912.02909"
       y2="499.60233"
       gradientUnits="userSpaceOnUse" /></defs><g
     inkscape:label="Layer 1"
     inkscape:groupmode="layer"
     id="layer1"
     transform="translate(-26.889506,-33.187228)"><g
       id="g12"
       style="fill:#000000;fill-opacity:1"
       transform="matrix(1.3950658,0,0,1.3950658,-339.44142,-161.03566)"><path
         style="font-weight:bold;font-size:144.456px;line-height:1.25;font-family:'Futura PT';-inkscape-font-specification:'Futura PT';letter-spacing:0px;word-spacing:0px;fill:#000000;fill-opacity:1;stroke-width:70.1749"
         d="m 970.01864,407.61796 h 70.73656 l 59.8828,151.95278 60.6313,-151.95278 h 70.3623 l -106.2919,249.63656 h -50.5262 z m 287.81146,0 h 64.7483 v 249.63656 h -64.7483 z m 221.192,249.63656 H 1374.9758 V 407.61796 h 96.561 q 37.0525,0 54.643,19.46188 15.345,16.84225 15.345,46.78344 0,16.46787 -7.1111,30.68996 -7.4853,13.84797 -20.2104,19.46188 20.959,2.24577 34.0583,14.97085 16.842,16.09349 16.842,45.66056 0,30.68995 -18.3391,49.02921 -22.8303,23.57878 -67.7424,23.57878 z m -39.298,-199.85884 v 48.65483 h 11.9765 q 17.2163,0 24.7016,-7.85968 5.9883,-5.98829 5.9883,-16.46787 0,-10.10519 -5.9883,-16.84198 -7.4853,-7.4853 -24.7016,-7.4853 z m 0,96.93527 v 52.39735 h 14.5964 q 31.4384,0 40.0466,-10.10519 5.2398,-5.98829 5.2398,-16.09348 0,-11.6022 -6.3626,-17.96487 -8.2339,-8.23381 -40.0466,-8.23381 z m 166.549,-146.71299 h 101.0522 q 39.6724,0 61.0056,22.08178 21.3333,21.70765 21.3333,56.14012 0,32.93573 -19.8362,52.02323 -13.8479,13.09947 -34.4326,17.21637 l 78.2219,102.17506 h -80.4675 l -62.1284,-95.81265 v 95.81265 h -64.7483 z m 64.7483,50.15184 v 61.7543 h 12.3508 q 20.959,0 31.4384,-10.1052 8.2339,-8.23406 8.2339,-20.95914 0,-13.09921 -8.6081,-20.95889 -9.731,-9.73107 -31.0642,-9.73107 z m 337.5895,199.48472 -15.3449,-41.91804 h -90.5728 l -16.842,41.91804 h -68.491 l 95.8125,-249.63656 h 70.7366 l 93.9411,249.63656 z m -87.9528,-91.32137 h 55.3916 l -28.0701,-80.84179 z m 186.0106,-158.31519 h 64.7483 v 249.63656 h -64.7483 z m 181.8939,249.63656 h -64.7483 V 407.61796 h 64.7483 l 119.3913,152.70128 V 407.61796 h 64.7483 v 249.63656 h -64.7483 L 2288.5626,504.55324 Z m 383.9986,-194.61906 h -53.1461 v 194.61906 h -64.7482 V 462.63546 h -53.146 v -55.0175 h 171.0403 z"
         id="text79"
         aria-label="VIBRAINT" /><path
         style="font-weight:bold;font-size:42.6699px;line-height:1.25;font-family:'Futura PT';-inkscape-font-specification:'Futura PT';letter-spacing:0px;word-spacing:0px;fill:#000000;fill-opacity:1;stroke-width:20.7286"
         d="m 1074.8222,730.03532 h 20.8944 l 17.6884,44.88407 17.9095,-44.88407 h 20.7838 l -31.3969,73.73839 h -14.9245 z m 85.0147,0 h 19.1256 v 73.73839 h -19.1256 z m 34.6029,0 h 29.8491 q 11.7186,0 18.0201,6.52253 6.3015,6.4119 6.3015,16.5829 0,9.72848 -5.8593,15.36674 -4.0904,3.86921 -10.1708,5.08537 l 23.1054,30.18085 h -23.7687 l -18.3517,-28.30143 v 28.30143 h -19.1256 z m 19.1256,14.81385 v 18.24132 h 3.6482 q 6.1909,0 9.2864,-2.98495 2.4321,-2.43231 2.4321,-6.1909 0,-3.86947 -2.5427,-6.19115 -2.8743,-2.87432 -9.1758,-2.87432 z m 90.9847,1.43716 h -15.6984 v 57.48738 h -19.1256 v -57.48738 h -15.6984 v -16.25101 h 50.5224 z m 8.5126,-16.25101 h 19.1256 v 43.66817 q 0,7.73869 3.7588,11.3869 3.7587,3.53758 9.0653,3.53758 5.3065,0 8.8442,-3.20595 1.9899,-1.76879 2.9849,-4.42211 1.1055,-2.76394 1.2161,-4.31147 0.1106,-1.65842 0.1106,-4.64337 v -42.00975 h 19.1255 v 42.34138 q 0,4.86437 -0.3316,8.07032 -0.3317,3.09558 -2.3216,7.62832 -1.8794,4.4221 -5.6382,8.18069 -9.0653,9.17584 -24.3215,9.17584 -16.1407,0 -24.4321,-8.84421 -7.1859,-7.84906 -7.1859,-24.21096 z m 129.2359,73.73839 -4.5327,-12.38179 h -26.7537 l -4.9748,12.38179 h -20.2311 l 28.3014,-73.73839 h 20.8944 l 27.7486,73.73839 z m -25.9798,-26.9749 h 16.3617 l -8.2914,-23.87932 z m 54.9444,-46.76349 h 19.1256 v 57.48712 h 22.9949 v 16.25127 h -42.1205 z"
         id="path140" /><path
         d="m 1550.7502,730.03532 h 13.2663 q 11.0553,0 16.9145,4.64311 6.6332,5.08537 6.6332,15.25611 0,9.50774 -7.2965,14.48248 7.0754,1.76879 10.5025,7.18579 3.5377,5.30663 3.5377,11.3869 0,4.975 -2.2111,9.17584 -2.1005,4.20111 -5.3065,6.74379 -6.1909,4.86437 -17.6884,4.86437 h -18.3517 z m 8.1809,7.73869 v 24.65295 h 6.1909 q 1.6583,0 3.2061,-0.1114 1.5477,-0.22023 3.6482,-0.88453 2.2111,-0.77389 3.7588,-1.98979 1.6583,-1.21616 2.7638,-3.64847 1.1055,-2.43206 1.1055,-5.63801 0,-3.42721 -1.3266,-5.85926 -1.3267,-2.54269 -2.9849,-3.75884 -1.6583,-1.21616 -3.9799,-1.87942 -2.3216,-0.66327 -3.5377,-0.7739 -1.2161,-0.11141 -2.4322,-0.11141 z m 0,31.94964 v 26.31137 h 9.397 q 8.9547,0 12.9346,-3.09557 4.8643,-3.53759 4.8643,-10.17075 0,-7.40705 -6.3015,-10.83426 -3.9799,-2.21079 -12.4924,-2.21079 z m 50.412,-39.68833 h 11.8291 q 11.9397,0 17.9095,4.09022 8.0703,5.41726 8.0703,16.36189 0,8.51258 -5.1959,14.15059 -5.0855,5.63826 -13.3769,6.19115 l 23.4371,32.94454 h -9.9497 l -22.4421,-32.28127 h -2.1005 v 32.28127 h -8.1809 z m 8.1809,7.73869 v 26.422 h 5.1959 q 7.6282,0 11.9397,-3.53784 4.3115,-3.53758 4.3115,-9.94974 0,-7.51742 -5.8592,-10.834 -3.7588,-2.10042 -10.6131,-2.10042 z m 96.6228,65.9997 -8.623,-20.784 h -31.3969 l -8.8442,20.784 h -9.0653 l 33.9396,-77.27623 33.0551,77.27623 z m -36.8139,-28.52269 h 24.9848 l -12.3818,-29.51733 z m 56.2712,-45.2157 h 8.1809 v 73.73839 h -8.1809 z m 35.3768,73.73839 H 1760.8 v -76.83397 l 57.4872,60.25107 v -57.15549 h 8.1809 v 77.05497 l -57.4872,-60.25107 z m 138.3011,-65.9997 h -17.9095 v 65.9997 h -8.1809 v -65.9997 h -17.9095 v -7.73869 h 43.9999 z m 49.3064,-7.73869 v 7.73869 h -30.0703 v 21.88927 h 29.1859 v 7.73868 h -29.1859 v 28.63306 h 30.0703 v 7.73869 h -38.2511 v -73.73839 z m 71.4168,6.08027 v 10.17074 q -4.422,-4.42211 -9.618,-6.85416 -6.3015,-2.87432 -12.7135,-2.87432 -12.7136,0 -21.2261,8.95458 -8.402,8.84422 -8.402,21.7789 0,13.92959 9.1759,21.9999 9.2864,8.07032 20.5627,8.07032 7.0754,0 13.7085,-3.42695 4.6432,-2.32168 8.5125,-6.19116 v 10.171 q -10.0602,7.1858 -22.221,7.1858 -16.3617,0 -27.3064,-10.94464 -10.8342,-10.94463 -10.8342,-26.9749 0,-16.47227 10.9447,-27.4169 11.0553,-10.94464 27.6381,-10.94464 12.1608,0 21.7788,7.29643 z m 23.216,-6.08027 v 29.95959 h 37.809 v -29.95959 h 8.1808 v 73.73839 h -8.1808 V 767.7336 h -37.809 v 36.04011 h -8.1808 v -73.73839 z m 73.1858,73.73839 h -8.1809 v -76.83397 l 57.4873,60.25107 v -57.15549 h 8.1809 v 77.05497 l -57.4873,-60.25107 z m 138.08,-9.61811 q -11.0552,10.94464 -27.1958,10.94464 -16.1407,0 -27.3065,-10.94464 -11.0552,-10.94463 -11.0552,-27.1959 0,-16.36164 11.1658,-27.1959 11.1658,-10.94464 27.1959,-10.94464 16.03,0 27.1958,10.94464 11.1658,10.83426 11.1658,27.1959 0,16.25127 -11.1658,27.1959 z m -5.9698,-48.75354 q -8.7336,-8.84421 -21.226,-8.84421 -12.4925,0 -21.2261,8.84421 -8.7336,8.84421 -8.7336,21.55764 0,12.71343 8.7336,21.55764 8.7336,8.84421 21.2261,8.84421 12.4924,0 21.226,-8.84421 8.7337,-8.84421 8.7337,-21.55764 0,-12.71343 -8.7337,-21.55764 z m 32.1708,-15.36674 h 8.1809 v 65.9997 h 20.3416 v 7.73869 h -28.5225 z m 97.3966,64.12028 q -11.0552,10.94464 -27.1958,10.94464 -16.1407,0 -27.3065,-10.94464 -11.0552,-10.94463 -11.0552,-27.1959 0,-16.36164 11.1658,-27.1959 11.1658,-10.94464 27.1959,-10.94464 16.0301,0 27.1958,10.94464 11.1658,10.83426 11.1658,27.1959 0,16.25127 -11.1658,27.1959 z m -5.9698,-48.75354 q -8.7336,-8.84421 -21.226,-8.84421 -12.4925,0 -21.2261,8.84421 -8.7336,8.84421 -8.7336,21.55764 0,12.71343 8.7336,21.55764 8.7336,8.84421 21.2261,8.84421 12.4924,0 21.226,-8.84421 8.7337,-8.84421 8.7337,-21.55764 0,-12.71343 -8.7337,-21.55764 z m 70.2008,29.07533 v -7.73869 h 30.7336 v 1.76879 q 0,13.70858 -7.0754,23.32643 -9.8391,13.26632 -27.417,13.26632 -16.3617,0 -27.3064,-10.94464 -10.9447,-11.05526 -10.9447,-27.1959 0,-16.14064 10.9447,-27.08527 11.0552,-11.05527 27.5276,-11.05527 13.0451,0 22.5526,7.29643 4.8643,3.75884 8.5126,8.73358 l -6.0804,5.52763 q -3.206,-4.53248 -6.9648,-7.62805 -7.6281,-6.1909 -17.9095,-6.1909 -13.1557,0 -21.6683,8.73358 -8.5125,8.73358 -8.5125,21.7789 0,9.50748 4.6432,16.69327 4.6432,7.07542 11.2763,10.392 6.7438,3.20595 14.0402,3.20595 7.2965,0 13.2663,-3.31658 6.0804,-3.42695 9.2864,-9.06521 2.7638,-4.75374 2.9849,-10.50237 z m 45.7686,-44.44207 h 8.1809 v 73.73839 h -8.1809 z m 65.4471,0 v 7.73869 h -30.0702 v 21.88927 h 29.1858 v 7.73868 h -29.1858 v 28.63306 h 30.0702 v 7.73869 h -38.2511 v -73.73839 z m 54.5025,10.28137 -6.5227,4.31148 q -1.7689,-3.42721 -4.3116,-5.52764 -3.3165,-2.54268 -8.2914,-2.54268 -5.5276,0 -8.9547,3.20595 -3.4272,3.09558 -3.4272,8.18095 0,3.75884 2.7638,6.4119 2.2111,2.21105 7.7387,4.64336 l 7.0754,3.09532 q 7.8492,3.42721 11.3869,6.96479 5.3064,5.30663 5.3064,13.37695 0,10.06037 -6.6331,16.36164 -6.6331,6.30153 -16.6934,6.30153 -9.9497,0 -16.0301,-5.9699 -4.9748,-4.86411 -6.8542,-13.04506 l 7.9598,-2.21105 q 0.7738,5.52763 4.422,9.39685 4.0905,4.09047 10.6131,4.09047 7.0753,0 10.9447,-4.20084 3.8693,-4.31174 3.8693,-10.39201 0,-5.30663 -3.6482,-8.62321 -2.1005,-1.98979 -8.8442,-5.08537 l -6.6332,-3.09532 q -6.7437,-3.09557 -9.8391,-6.08052 -5.0854,-4.86411 -5.0854,-12.05016 0,-8.51258 5.7487,-13.70858 5.8593,-5.30638 14.9246,-5.30638 6.8542,0 11.8291,3.31658 4.5326,2.98495 7.186,8.18095 z"
         id="path141"
         style="font-size:42.6699px;line-height:1.25;font-family:'Futura PT';-inkscape-font-specification:'Futura PT';letter-spacing:0px;word-spacing:0px;fill:#000000;fill-opacity:1;stroke-width:20.7286" /></g><g
       id="g78"
       style="fill:url(#linearGradient79)"><path
         id="circle81"
         style="fill:url(#linearGradient79);fill-opacity:1;stroke-width:1.58503"
         d="m 514.06427,497.99029 a 30.104512,30.104512 0 0 1 -30.1045,30.10442 30.104512,30.104512 0 0 1 -30.10452,-30.10442 30.104512,30.104512 0 0 1 30.10452,-30.10442 30.104512,30.104512 0 0 1 30.1045,30.10442 z" /><path
         id="circle82"
         style="fill:url(#linearGradient79);fill-opacity:1;stroke-width:1.58503"
         d="m 514.06427,563.08345 a 30.104512,30.104512 0 0 1 -30.1045,30.10468 30.104512,30.104512 0 0 1 -30.10452,-30.10468 30.104512,30.104512 0 0 1 30.10452,-30.10442 30.104512,30.104512 0 0 1 30.1045,30.10442 z" /><path
         id="ellipse82"
         style="fill:url(#linearGradient79);fill-opacity:1;stroke-width:1.43233"
         d="M 511.16412,627.853 A 27.204366,27.204369 0 0 1 483.95977,655.05746 27.204366,27.204369 0 0 1 456.7554,627.853 27.204366,27.204369 0 0 1 483.95977,600.64855 27.204366,27.204369 0 0 1 511.16412,627.853 Z" /><path
         id="circle83"
         style="fill:url(#linearGradient79);fill-opacity:1;stroke-width:1.33053"
         d="m 509.2307,692.62178 a 25.270937,25.270937 0 0 1 -25.27093,25.27088 25.270937,25.270937 0 0 1 -25.27096,-25.27088 25.270937,25.270937 0 0 1 25.27096,-25.27088 25.270937,25.270937 0 0 1 25.27093,25.27088 z" /><path
         id="ellipse83"
         style="fill:url(#linearGradient79);fill-opacity:1;stroke-width:1.22874"
         d="m 507.29726,757.06955 a 23.337505,23.337508 0 0 1 -23.33749,23.33731 23.337505,23.337508 0 0 1 -23.33752,-23.33731 23.337505,23.337508 0 0 1 23.33752,-23.33757 23.337505,23.337508 0 0 1 23.33749,23.33757 z" /><path
         id="ellipse84"
         style="fill:url(#linearGradient79);fill-opacity:1;stroke-width:1.22874"
         d="m 443.1719,757.06955 a 23.337505,23.337508 0 0 1 -23.33749,23.33731 23.337505,23.337508 0 0 1 -23.33752,-23.33731 23.337505,23.337508 0 0 1 23.33752,-23.33757 23.337505,23.337508 0 0 1 23.33749,23.33757 z" /><path
         id="circle84"
         style="fill:url(#linearGradient79);fill-opacity:1;stroke-width:1.33053"
         d="m 445.10534,692.62178 a 25.270937,25.270937 0 0 1 -25.27093,25.27088 25.270937,25.270937 0 0 1 -25.27093,-25.27088 25.270937,25.270937 0 0 1 25.27093,-25.27088 25.270937,25.270937 0 0 1 25.27093,25.27088 z" /><path
         id="ellipse85"
         style="fill:url(#linearGradient79);fill-opacity:1;stroke-width:1.43233"
         d="M 447.03876,627.853 A 27.204366,27.204369 0 0 1 419.83441,655.05746 27.204366,27.204369 0 0 1 392.63004,627.853 27.204366,27.204369 0 0 1 419.83441,600.64855 27.204366,27.204369 0 0 1 447.03876,627.853 Z" /><path
         id="ellipse86"
         style="fill:url(#linearGradient79);fill-opacity:1;stroke-width:1.43233"
         d="m 447.03876,563.08345 a 27.204366,27.204369 0 0 1 -27.20435,27.20445 27.204366,27.204369 0 0 1 -27.20437,-27.20445 27.204366,27.204369 0 0 1 27.20437,-27.20419 27.204366,27.204369 0 0 1 27.20435,27.20419 z" /><path
         id="ellipse87"
         style="fill:url(#linearGradient79);fill-opacity:1;stroke-width:1.43233"
         d="m 447.03876,497.99029 a 27.204366,27.204369 0 0 1 -27.20435,27.20445 27.204366,27.204369 0 0 1 -27.20437,-27.20445 27.204366,27.204369 0 0 1 27.20437,-27.20445 27.204366,27.204369 0 0 1 27.20435,27.20445 z" /><path
         id="ellipse88"
         style="fill:url(#linearGradient79);fill-opacity:1;stroke-width:1.22874"
         d="m 443.1719,368.45014 a 23.337505,23.337508 0 0 1 -23.33749,23.33757 23.337505,23.337508 0 0 1 -23.33752,-23.33757 23.337505,23.337508 0 0 1 23.33752,-23.33757 23.337505,23.337508 0 0 1 23.33749,23.33757 z" /><path
         id="circle88"
         style="fill:url(#linearGradient79);fill-opacity:1;stroke-width:1.33053"
         d="m 509.2307,368.45014 a 25.270937,25.270937 0 0 1 -25.27093,25.27089 25.270937,25.270937 0 0 1 -25.27096,-25.27089 25.270937,25.270937 0 0 1 25.27096,-25.27088 25.270937,25.270937 0 0 1 25.27093,25.27088 z" /><path
         id="circle89"
         style="fill:url(#linearGradient79);fill-opacity:1;stroke-width:1.33053"
         d="m 574.64536,368.45014 a 25.270937,25.270937 0 0 1 -25.27093,25.27089 25.270937,25.270937 0 0 1 -25.27093,-25.27089 25.270937,25.270937 0 0 1 25.27093,-25.27088 25.270937,25.270937 0 0 1 25.27093,25.27088 z" /><path
         id="circle90"
         style="fill:url(#linearGradient79);fill-opacity:1;stroke-width:1.58503"
         d="m 579.47893,497.99029 a 30.104512,30.104512 0 0 1 -30.1045,30.10442 30.104512,30.104512 0 0 1 -30.10452,-30.10442 30.104512,30.104512 0 0 1 30.10452,-30.10442 30.104512,30.104512 0 0 1 30.1045,30.10442 z" /><path
         id="circle91"
         style="fill:url(#linearGradient79);fill-opacity:1;stroke-width:1.58503"
         d="m 579.47893,563.08345 a 30.104512,30.104512 0 0 1 -30.1045,30.10468 30.104512,30.104512 0 0 1 -30.10452,-30.10468 30.104512,30.104512 0 0 1 30.10452,-30.10442 30.104512,30.104512 0 0 1 30.1045,30.10442 z" /><path
         id="ellipse91"
         style="fill:url(#linearGradient79);fill-opacity:1;stroke-width:1.43233"
         d="M 576.5788,627.853 A 27.204366,27.204369 0 0 1 549.37443,655.05746 27.204366,27.204369 0 0 1 522.17005,627.853 27.204366,27.204369 0 0 1 549.37443,600.64855 27.204366,27.204369 0 0 1 576.5788,627.853 Z" /><path
         id="ellipse92"
         style="fill:url(#linearGradient79);fill-opacity:1;stroke-width:1.43233"
         d="M 641.99346,627.853 A 27.204366,27.204369 0 0 1 614.78909,655.05746 27.204366,27.204369 0 0 1 587.58471,627.853 27.204366,27.204369 0 0 1 614.78909,600.64855 27.204366,27.204369 0 0 1 641.99346,627.853 Z" /><path
         id="ellipse93"
         style="fill:url(#linearGradient79);fill-opacity:1;stroke-width:1.43233"
         d="m 641.99346,563.08345 a 27.204366,27.204369 0 0 1 -27.20437,27.20445 27.204366,27.204369 0 0 1 -27.20438,-27.20445 27.204366,27.204369 0 0 1 27.20438,-27.20419 27.204366,27.204369 0 0 1 27.20437,27.20419 z" /><path
         id="ellipse94"
         style="fill:url(#linearGradient79);fill-opacity:1;stroke-width:1.43233"
         d="m 641.99346,497.99029 a 27.204366,27.204369 0 0 1 -27.20437,27.20445 27.204366,27.204369 0 0 1 -27.20438,-27.20445 27.204366,27.204369 0 0 1 27.20438,-27.20445 27.204366,27.204369 0 0 1 27.20437,27.20445 z" /><path
         id="circle94"
         style="fill:url(#linearGradient79);fill-opacity:1;stroke-width:1.33053"
         d="m 640.06002,368.45014 a 25.270937,25.270937 0 0 1 -25.27093,25.27089 25.270937,25.270937 0 0 1 -25.27094,-25.27089 25.270937,25.270937 0 0 1 25.27094,-25.27088 25.270937,25.270937 0 0 1 25.27093,25.27088 z" /><path
         id="circle95"
         style="fill:url(#linearGradient79);fill-opacity:1;stroke-width:1.33053"
         d="m 574.64536,692.62178 a 25.270937,25.270937 0 0 1 -25.27093,25.27088 25.270937,25.270937 0 0 1 -25.27093,-25.27088 25.270937,25.270937 0 0 1 25.27093,-25.27088 25.270937,25.270937 0 0 1 25.27093,25.27088 z" /><path
         id="circle96"
         style="fill:url(#linearGradient79);fill-opacity:1;stroke-width:1.33053"
         d="m 640.06002,692.62178 a 25.270937,25.270937 0 0 1 -25.27093,25.27088 25.270937,25.270937 0 0 1 -25.27094,-25.27088 25.270937,25.270937 0 0 1 25.27094,-25.27088 25.270937,25.270937 0 0 1 25.27093,25.27088 z" /><path
         id="ellipse96"
         style="fill:url(#linearGradient79);fill-opacity:1;stroke-width:1.16087"
         d="m 441.88297,304.00341 a 22.048551,22.048554 0 0 1 -22.04856,22.04861 22.048551,22.048554 0 0 1 -22.04856,-22.04861 22.048551,22.048554 0 0 1 22.04856,-22.04861 22.048551,22.048554 0 0 1 22.04856,22.04861 z" /><path
         id="ellipse97"
         style="fill:url(#linearGradient79);fill-opacity:1;stroke-width:1.16087"
         d="m 506.0083,304.00341 a 22.048551,22.048554 0 0 1 -22.04853,22.04861 22.048551,22.048554 0 0 1 -22.04856,-22.04861 22.048551,22.048554 0 0 1 22.04856,-22.04861 22.048551,22.048554 0 0 1 22.04853,22.04861 z" /><path
         id="ellipse98"
         style="fill:url(#linearGradient79);fill-opacity:1;stroke-width:1.16087"
         d="m 571.42299,304.00341 a 22.048551,22.048554 0 0 1 -22.04856,22.04861 22.048551,22.048554 0 0 1 -22.04856,-22.04861 22.048551,22.048554 0 0 1 22.04856,-22.04861 22.048551,22.048554 0 0 1 22.04856,22.04861 z" /><path
         id="ellipse99"
         style="fill:url(#linearGradient79);fill-opacity:1;stroke-width:1.16087"
         d="m 700.96174,368.45014 a 22.048551,22.048554 0 0 1 -22.04856,22.04861 22.048551,22.048554 0 0 1 -22.04856,-22.04861 22.048551,22.048554 0 0 1 22.04856,-22.0486 22.048551,22.048554 0 0 1 22.04856,22.0486 z" /><path
         id="ellipse100"
         style="fill:url(#linearGradient79);fill-opacity:1;stroke-width:1.05907"
         d="m 743.82057,319.47016 a 20.115121,20.115122 0 0 1 -20.11512,20.1153 20.115121,20.115122 0 0 1 -20.11512,-20.1153 20.115121,20.115122 0 0 1 20.11512,-20.11504 20.115121,20.115122 0 0 1 20.11512,20.11504 z" /><path
         id="ellipse101"
         style="fill:url(#linearGradient79);fill-opacity:1;stroke-width:1.16087"
         d="m 441.88297,820.87349 a 22.048551,22.048554 0 0 1 -22.04856,22.04861 22.048551,22.048554 0 0 1 -22.04856,-22.04861 22.048551,22.048554 0 0 1 22.04856,-22.04861 22.048551,22.048554 0 0 1 22.04856,22.04861 z" /><path
         id="ellipse102"
         style="fill:url(#linearGradient79);fill-opacity:1;stroke-width:1.22874"
         d="m 377.75761,368.45014 a 23.337505,23.337508 0 0 1 -23.33752,23.33757 23.337505,23.337508 0 0 1 -23.33749,-23.33757 23.337505,23.337508 0 0 1 23.33749,-23.33757 23.337505,23.337508 0 0 1 23.33752,23.33757 z" /><path
         id="circle102"
         style="fill:url(#linearGradient79);fill-opacity:1;stroke-width:1.33053"
         d="m 379.69102,497.99029 a 25.270937,25.270937 0 0 1 -25.27093,25.27088 25.270937,25.270937 0 0 1 -25.27093,-25.27088 25.270937,25.270937 0 0 1 25.27093,-25.27088 25.270937,25.270937 0 0 1 25.27093,25.27088 z" /><path
         id="circle103"
         style="fill:url(#linearGradient79);fill-opacity:1;stroke-width:1.33053"
         d="m 379.69102,563.08345 a 25.270937,25.270937 0 0 1 -25.27093,25.27114 25.270937,25.270937 0 0 1 -25.27093,-25.27114 25.270937,25.270937 0 0 1 25.27093,-25.27088 25.270937,25.270937 0 0 1 25.27093,25.27088 z" /><path
         id="circle104"
         style="fill:url(#linearGradient79);fill-opacity:1;stroke-width:1.33053"
         d="M 379.69102,627.853 A 25.270937,25.270937 0 0 1 354.42009,653.12389 25.270937,25.270937 0 0 1 329.14916,627.853 25.270937,25.270937 0 0 1 354.42009,602.58212 25.270937,25.270937 0 0 1 379.69102,627.853 Z" /><path
         id="ellipse104"
         style="fill:url(#linearGradient79);fill-opacity:1;stroke-width:1.16087"
         d="m 247.57329,563.08345 a 22.048551,22.048554 0 0 1 -22.04855,22.04861 22.048551,22.048554 0 0 1 -22.04855,-22.04861 22.048551,22.048554 0 0 1 22.04855,-22.04861 22.048551,22.048554 0 0 1 22.04855,22.04861 z" /><path
         id="ellipse105"
         style="fill:url(#linearGradient79);fill-opacity:1;stroke-width:1.22874"
         d="m 313.30971,497.99029 a 23.337505,23.337508 0 0 1 -23.33749,23.33757 23.337505,23.337508 0 0 1 -23.33752,-23.33757 23.337505,23.337508 0 0 1 23.33752,-23.33757 23.337505,23.337508 0 0 1 23.33749,23.33757 z" /><path
         id="ellipse106"
         style="fill:url(#linearGradient79);fill-opacity:1;stroke-width:1.22874"
         d="m 313.30971,563.08345 a 23.337505,23.337508 0 0 1 -23.33749,23.33757 23.337505,23.337508 0 0 1 -23.33752,-23.33757 23.337505,23.337508 0 0 1 23.33752,-23.33731 23.337505,23.337508 0 0 1 23.33749,23.33731 z" /><path
         id="ellipse107"
         style="fill:url(#linearGradient79);fill-opacity:1;stroke-width:1.22874"
         d="m 768.31043,563.08345 a 23.337505,23.337508 0 0 1 -23.33752,23.33757 23.337505,23.337508 0 0 1 -23.33749,-23.33757 23.337505,23.337508 0 0 1 23.33749,-23.33731 23.337505,23.337508 0 0 1 23.33752,23.33731 z" /><path
         id="ellipse108"
         style="fill:url(#linearGradient79);fill-opacity:1;stroke-width:1.07604"
         d="m 824.37957,563.08345 a 20.43736,20.437361 0 0 1 -20.43735,20.43734 20.43736,20.437361 0 0 1 -20.43737,-20.43734 20.43736,20.437361 0 0 1 20.43737,-20.43735 20.43736,20.437361 0 0 1 20.43735,20.43735 z" /><path
         id="ellipse109"
         style="fill:url(#linearGradient79);fill-opacity:1;stroke-width:1.33053"
         d="m 704.18411,497.99029 a 25.270934,25.270937 0 0 1 -25.27093,25.27088 25.270934,25.270937 0 0 1 -25.27094,-25.27088 25.270934,25.270937 0 0 1 25.27094,-25.27088 25.270934,25.270937 0 0 1 25.27093,25.27088 z" /><path
         id="ellipse110"
         style="fill:url(#linearGradient79);fill-opacity:1;stroke-width:1.33053"
         d="m 704.18411,563.08345 a 25.270934,25.270937 0 0 1 -25.27093,25.27114 25.270934,25.270937 0 0 1 -25.27094,-25.27114 25.270934,25.270937 0 0 1 25.27094,-25.27088 25.270934,25.270937 0 0 1 25.27093,25.27088 z" /><path
         id="ellipse111"
         style="fill:url(#linearGradient79);fill-opacity:1;stroke-width:1.2457"
         d="M 702.57292,627.853 A 23.659742,23.659747 0 0 1 678.91318,651.51288 23.659742,23.659747 0 0 1 655.25343,627.853 23.659742,23.659747 0 0 1 678.91318,604.19339 23.659742,23.659747 0 0 1 702.57292,627.853 Z" /><path
         id="ellipse112"
         style="fill:url(#linearGradient79);fill-opacity:1;stroke-width:0.787618"
         d="m 185.70355,563.08345 a 14.959307,14.959309 0 0 1 -14.9593,14.95945 14.959307,14.959309 0 0 1 -14.95931,-14.95945 14.959307,14.959309 0 0 1 14.95931,-14.9592 14.959307,14.959309 0 0 1 14.9593,14.9592 z" /><path
         id="ellipse113"
         style="fill:url(#linearGradient79);fill-opacity:1;stroke-width:0.787618"
         d="m 434.79371,951.05799 a 14.959307,14.959309 0 0 1 -14.9593,14.95945 14.959307,14.959309 0 0 1 -14.9593,-14.95945 14.959307,14.959309 0 0 1 14.9593,-14.9592 14.959307,14.959309 0 0 1 14.9593,14.9592 z" /><path
         id="ellipse114"
         style="fill:url(#linearGradient79);fill-opacity:1;stroke-width:0.974244"
         d="m 438.33834,886.28765 a 18.503929,18.503931 0 0 1 -18.50393,18.50404 18.503929,18.503931 0 0 1 -18.50393,-18.50404 18.503929,18.503931 0 0 1 18.50393,-18.50377 18.503929,18.503931 0 0 1 18.50393,18.50377 z" /><path
         id="ellipse115"
         style="fill:url(#linearGradient79);fill-opacity:1;stroke-width:1.16087"
         d="m 745.75401,673.9325 a 22.048551,22.048554 0 0 1 -22.04856,22.04861 22.048551,22.048554 0 0 1 -22.04856,-22.04861 22.048551,22.048554 0 0 1 22.04856,-22.04861 22.048551,22.048554 0 0 1 22.04856,22.04861 z" /><path
         id="ellipse116"
         style="fill:url(#linearGradient79);fill-opacity:1;stroke-width:0.974244"
         d="m 788.93341,720.01278 a 18.503929,18.503931 0 0 1 -18.50393,18.50403 18.503929,18.503931 0 0 1 -18.50393,-18.50403 18.503929,18.503931 0 0 1 18.50393,-18.50378 18.503929,18.503931 0 0 1 18.50393,18.50378 z" /><path
         id="ellipse117"
         style="fill:url(#linearGradient79);fill-opacity:1;stroke-width:0.787618"
         d="m 823.73568,760.29286 a 14.959307,14.959309 0 0 1 -14.9593,14.95946 14.959307,14.959309 0 0 1 -14.9593,-14.95946 14.959307,14.959309 0 0 1 14.9593,-14.9592 14.959307,14.959309 0 0 1 14.9593,14.9592 z" /><path
         id="ellipse118"
         style="fill:url(#linearGradient79);fill-opacity:1;stroke-width:1.43233"
         d="m 511.16412,434.82242 a 27.204366,27.204369 0 0 1 -27.20435,27.20445 27.204366,27.204369 0 0 1 -27.20437,-27.20445 27.204366,27.204369 0 0 1 27.20437,-27.2042 27.204366,27.204369 0 0 1 27.20435,27.2042 z" /><path
         id="circle118"
         style="fill:url(#linearGradient79);fill-opacity:1;stroke-width:1.33053"
         d="m 445.10534,434.82242 a 25.270937,25.270937 0 0 1 -25.27093,25.27114 25.270937,25.270937 0 0 1 -25.27093,-25.27114 25.270937,25.270937 0 0 1 25.27093,-25.27089 25.270937,25.270937 0 0 1 25.27093,25.27089 z" /><path
         id="ellipse119"
         style="fill:url(#linearGradient79);fill-opacity:1;stroke-width:1.43233"
         d="m 576.5788,434.82242 a 27.204366,27.204369 0 0 1 -27.20437,27.20445 27.204366,27.204369 0 0 1 -27.20438,-27.20445 27.204366,27.204369 0 0 1 27.20438,-27.2042 27.204366,27.204369 0 0 1 27.20437,27.2042 z" /><path
         id="ellipse120"
         style="fill:url(#linearGradient79);fill-opacity:1;stroke-width:1.43233"
         d="m 641.99346,434.82242 a 27.204366,27.204369 0 0 1 -27.20437,27.20445 27.204366,27.204369 0 0 1 -27.20438,-27.20445 27.204366,27.204369 0 0 1 27.20438,-27.2042 27.204366,27.204369 0 0 1 27.20437,27.2042 z" /><path
         id="circle120"
         style="fill:url(#linearGradient79);fill-opacity:1;stroke-width:1.33053"
         d="m 379.69102,434.82242 a 25.270937,25.270937 0 0 1 -25.27093,25.27114 25.270937,25.270937 0 0 1 -25.27093,-25.27114 25.270937,25.270937 0 0 1 25.27093,-25.27089 25.270937,25.270937 0 0 1 25.27093,25.27089 z" /><path
         id="ellipse121"
         style="fill:url(#linearGradient79);fill-opacity:1;stroke-width:1.16087"
         d="m 246.2844,434.82242 a 22.048551,22.048554 0 0 1 -22.04855,22.04861 22.048551,22.048554 0 0 1 -22.04855,-22.04861 22.048551,22.048554 0 0 1 22.04855,-22.04835 22.048551,22.048554 0 0 1 22.04855,22.04835 z" /><path
         id="ellipse122"
         style="fill:url(#linearGradient79);fill-opacity:1;stroke-width:1.22874"
         d="m 313.30971,434.82242 a 23.337505,23.337508 0 0 1 -23.33749,23.33757 23.337505,23.337508 0 0 1 -23.33752,-23.33757 23.337505,23.337508 0 0 1 23.33752,-23.33732 23.337505,23.337508 0 0 1 23.33749,23.33732 z" /><path
         id="ellipse123"
         style="fill:url(#linearGradient79);fill-opacity:1;stroke-width:1.16087"
         d="m 767.02147,434.82242 a 22.048551,22.048554 0 0 1 -22.04856,22.04861 22.048551,22.048554 0 0 1 -22.04856,-22.04861 22.048551,22.048554 0 0 1 22.04856,-22.04835 22.048551,22.048554 0 0 1 22.04856,22.04835 z" /><path
         id="ellipse124"
         style="fill:url(#linearGradient79);fill-opacity:1;stroke-width:1.27963"
         d="m 703.2174,434.82242 a 24.304219,24.304221 0 0 1 -24.30422,24.30422 24.304219,24.304221 0 0 1 -24.30423,-24.30422 24.304219,24.304221 0 0 1 24.30423,-24.30397 24.304219,24.304221 0 0 1 24.30422,24.30397 z" /><path
         id="ellipse125"
         style="fill:url(#linearGradient79);fill-opacity:1;stroke-width:1.00818"
         d="m 177.96978,434.82242 a 19.148405,19.148407 0 0 1 -19.14841,19.14864 19.148405,19.148407 0 0 1 -19.14841,-19.14864 19.148405,19.148407 0 0 1 19.14841,-19.14839 19.148405,19.148407 0 0 1 19.14841,19.14839 z" /><path
         id="ellipse126"
         style="fill:url(#linearGradient79);fill-opacity:1;stroke-width:0.787618"
         d="m 109.65532,434.82242 a 14.959307,14.959309 0 0 1 -14.959309,14.95945 14.959307,14.959309 0 0 1 -14.959308,-14.95945 14.959307,14.959309 0 0 1 14.959308,-14.9592 14.959307,14.959309 0 0 1 14.959309,14.9592 z" /><path
         id="ellipse127"
         style="fill:url(#linearGradient79);fill-opacity:1;stroke-width:0.584025"
         d="M 49.074401,434.82242 A 11.092446,11.092448 0 0 1 37.981953,445.91499 11.092446,11.092448 0 0 1 26.889506,434.82242 11.092446,11.092448 0 0 1 37.981953,423.7301 11.092446,11.092448 0 0 1 49.074401,434.82242 Z" /><path
         id="ellipse128"
         style="fill:url(#linearGradient79);fill-opacity:1;stroke-width:0.787618"
         d="m 867.56006,434.82242 a 14.959307,14.959309 0 0 1 -14.9593,14.95945 14.959307,14.959309 0 0 1 -14.9593,-14.95945 14.959307,14.959309 0 0 1 14.9593,-14.9592 14.959307,14.959309 0 0 1 14.9593,14.9592 z" /><path
         id="ellipse129"
         style="fill:url(#linearGradient79);fill-opacity:1;stroke-width:0.974244"
         d="m 822.44615,434.82242 a 18.503929,18.503931 0 0 1 -18.50393,18.50403 18.503929,18.503931 0 0 1 -18.50393,-18.50403 18.503929,18.503931 0 0 1 18.50393,-18.50378 18.503929,18.503931 0 0 1 18.50393,18.50378 z" /><path
         id="ellipse130"
         style="fill:url(#linearGradient79);fill-opacity:1;stroke-width:0.634923"
         d="m 912.02909,434.82242 a 12.059162,12.059163 0 0 1 -12.05915,12.05923 12.059162,12.059163 0 0 1 -12.05915,-12.05923 12.059162,12.059163 0 0 1 12.05915,-12.05897 12.059162,12.059163 0 0 1 12.05915,12.05897 z" /><path
         id="ellipse131"
         style="fill:url(#linearGradient79);fill-opacity:1;stroke-width:0.533127"
         d="m 429.96015,115.4939 a 10.125731,10.125733 0 0 1 -10.12574,10.12592 10.125731,10.125733 0 0 1 -10.12574,-10.12592 10.125731,10.125733 0 0 1 10.12574,-10.12566 10.125731,10.125733 0 0 1 10.12574,10.12566 z" /><path
         id="ellipse132"
         style="fill:url(#linearGradient79);fill-opacity:1;stroke-width:0.533127"
         d="M 559.50017,43.312887 A 10.125731,10.125733 0 0 1 549.37443,53.438806 10.125731,10.125733 0 0 1 539.24869,43.312887 10.125731,10.125733 0 0 1 549.37443,33.187228 10.125731,10.125733 0 0 1 559.50017,43.312887 Z" /><path
         id="ellipse133"
         style="fill:url(#linearGradient79);fill-opacity:1;stroke-width:0.533127"
         d="m 797.31264,238.58925 a 10.125731,10.125733 0 0 1 -10.12571,10.12566 10.125731,10.125733 0 0 1 -10.12574,-10.12566 10.125731,10.125733 0 0 1 10.12574,-10.12592 10.125731,10.125733 0 0 1 10.12571,10.12592 z" /><path
         id="ellipse134"
         style="fill:url(#linearGradient79);fill-opacity:1;stroke-width:0.787618"
         d="m 772.82208,274.35732 a 14.959307,14.959309 0 0 1 -14.9593,14.9592 14.959307,14.959309 0 0 1 -14.9593,-14.9592 14.959307,14.959309 0 0 1 14.9593,-14.9592 14.959307,14.959309 0 0 1 14.9593,14.9592 z" /><path
         id="ellipse135"
         style="fill:url(#linearGradient79);fill-opacity:1;stroke-width:0.787618"
         d="m 564.33373,110.01575 a 14.959307,14.959309 0 0 1 -14.9593,14.9592 14.959307,14.959309 0 0 1 -14.9593,-14.9592 14.959307,14.959309 0 0 1 14.9593,-14.959452 14.959307,14.959309 0 0 1 14.9593,14.959452 z" /><path
         id="ellipse136"
         style="fill:url(#linearGradient79);fill-opacity:1;stroke-width:0.787618"
         d="m 434.79371,173.49764 a 14.959307,14.959309 0 0 1 -14.9593,14.95946 14.959307,14.959309 0 0 1 -14.9593,-14.95946 14.959307,14.959309 0 0 1 14.9593,-14.95919 14.959307,14.959309 0 0 1 14.9593,14.95919 z" /><path
         id="ellipse137"
         style="fill:url(#linearGradient79);fill-opacity:1;stroke-width:1.05907"
         d="m 569.48955,237.94515 a 20.115121,20.115122 0 0 1 -20.11512,20.1153 20.115121,20.115122 0 0 1 -20.11512,-20.1153 20.115121,20.115122 0 0 1 20.11512,-20.11503 20.115121,20.115122 0 0 1 20.11512,20.11503 z" /><path
         id="ellipse138"
         style="fill:url(#linearGradient79);fill-opacity:1;stroke-width:0.940312"
         d="m 567.23388,173.49764 a 17.859453,17.859455 0 0 1 -17.85945,17.85943 17.859453,17.859455 0 0 1 -17.85945,-17.85943 17.859453,17.859455 0 0 1 17.85945,-17.85942 17.859453,17.859455 0 0 1 17.85945,17.85942 z" /><path
         id="ellipse139"
         style="fill:url(#linearGradient79);fill-opacity:1;stroke-width:0.940312"
         d="m 437.69386,237.94515 a 17.859453,17.859455 0 0 1 -17.85945,17.85969 17.859453,17.859455 0 0 1 -17.85945,-17.85969 17.859453,17.859455 0 0 1 17.85945,-17.85942 17.859453,17.859455 0 0 1 17.85945,17.85942 z" /><path
         id="ellipse140"
         style="fill:url(#linearGradient79);fill-opacity:1;stroke-width:0.940312"
         d="m 349.40058,315.92688 a 17.859453,17.859455 0 0 1 -17.85945,17.85942 17.859453,17.859455 0 0 1 -17.85945,-17.85942 17.859453,17.859455 0 0 1 17.85945,-17.85968 17.859453,17.859455 0 0 1 17.85945,17.85968 z" /></g></g></svg>
